PathFileType	4	(X/Y/Z)	C:/Users/opensim2020/Desktop/walking_exp_matlab/subject02_walking10_straight_04.trc																																																																																																																															
DataRate	CameraRate	NumFrames	NumMarkers	Units	OrigDataRate	OrigDataStartFrame	OrigNumFrames																																																																																																																											
100	100	5	43	mm	100	3052	260																																																																																																																											
Frame#	Time	LFHD			RFHD			LBHD			RBHD			C7			T10			CLAV			STRN			RBAK			LSHO			LUPA			LELB			LFRM			LWRA			LWRB			LFIN			RSHO			RUPA			RELB			RFRM			RWRA			RWRB			RFIN			LASI			RASI			LPSI			RPSI			LTHI			LKNE			LTIB			LANK			LHEE			LTOE			RTHI			RKNE			RTIB			RANK			RHEE			RTOE			*39			*40			*41			*42		
		X1	Y1	Z1	X2	Y2	Z2	X3	Y3	Z3	X4	Y4	Z4	X5	Y5	Z5	X6	Y6	Z6	X7	Y7	Z7	X8	Y8	Z8	X9	Y9	Z9	X10	Y10	Z10	X11	Y11	Z11	X12	Y12	Z12	X13	Y13	Z13	X14	Y14	Z14	X15	Y15	Z15	X16	Y16	Z16	X17	Y17	Z17	X18	Y18	Z18	X19	Y19	Z19	X20	Y20	Z20	X21	Y21	Z21	X22	Y22	Z22	X23	Y23	Z23	X24	Y24	Z24	X25	Y25	Z25	X26	Y26	Z26	X27	Y27	Z27	X28	Y28	Z28	X29	Y29	Z29	X30	Y30	Z30	X31	Y31	Z31	X32	Y32	Z32	X33	Y33	Z33	X34	Y34	Z34	X35	Y35	Z35	X36	Y36	Z36	X37	Y37	Z37	X38	Y38	Z38	X39	Y39	Z39	X40	Y40	Z40	X41	Y41	Z41	X42	Y42	Z42	X43	Y43	Z43
																																																																																																																																		
1	0	-800.62128	1759.57129	1007.39679	-788.64539	1731.17944	1149.00623	-901.82611	1648.11218	993.95605	-900.73975	1614.21936	1134.75134	-925.34564	1521.35608	1045.98743	-986.85693	1251.97974	1041.7135	-787.1604	1452.80957	1039.80188	-742.8476	1275.15454	1040.16907	-990.36536	1350.50623	1098.19189	-835.50928	1508.48254	869.46356	-802.71906	1314.86902	777.7981	-760.96716	1177.2594	762.94446	-685.05164	1066.84412	774.8045	-585.99945	993.72504	839.625	-614.64819	968.17719	798.33716	-563.13452	928.4809	808.69708	-856.27698	1474.49402	1234.51514	-900.72485	1285.12781	1311.71008	-892.80725	1140.61145	1336.99878	-861.61182	1025.00415	1361.22925	-806.83643	900.0329	1348.48279	-855.54291	895.4447	1376.90393	-816.37305	834.12158	1383.23987	-775.57715	980.30176	900.7749	-759.00018	973.34399	1157.37817	-977.96716	1030.13599	996.2652	-976.59961	1029.33582	1110.7301	-875.47321	670.9964	870.80566	-933.33289	475.26288	909.69403	-1019.30939	299.16626	916.39691	-1050.34094	78.58157	961.94617	-1089.2168	52.96968	1013.92316	-896.06342	38.31746	949.56281	-785.59949	678.3233	1252.36194	-713.51624	482.15088	1227.35486	-688.98419	299.81046	1253.3689	-632.63287	110.88448	1241.35571	-642.84253	45.19946	1188.29529	-470.11926	102.36855	1251.52856	-913.78223	1781.97668	1104.61438	-2846.00049	1034.10645	3356.95752	NaN	NaN	NaN	NaN	NaN	NaN
2	0.01	-792.6217	1758.32031	1008.99097	-780.21893	1730.05518	1150.74915	-893.29468	1646.73608	996.38776	-892.45575	1613.21924	1137.0957	-917.01038	1520.06287	1047.97021	-978.38519	1250.66528	1043.64722	-778.87354	1451.64465	1041.5824	-734.40375	1274.02625	1041.61731	-981.95844	1349.08435	1099.96594	-827.59723	1507.53687	871.32581	-795.28333	1313.91675	779.49994	-753.83112	1176.26196	764.41943	-677.04266	1065.8606	776.80554	-577.70032	993.99652	841.7334	-606.44922	967.86755	800.69202	-554.16779	928.63904	811.07758	-848.09674	1473.02063	1236.24072	-892.8031	1283.5387	1313.19238	-885.28418	1138.98682	1338.15466	-854.43634	1023.23267	1362.23621	-800.02472	898.12671	1349.25195	-848.90527	893.82245	1377.99207	-809.84363	832.28339	1384.21667	-767.9364	978.71301	901.97882	-750.16888	972.06769	1158.52161	-969.75256	1028.93127	998.5517	-967.98138	1028.31201	1113.05823	-869.54724	669.87732	872.42487	-929.18091	474.81772	910.63446	-1016.84747	299.55328	917.30157	-1049.99438	79.19341	962.30701	-1088.84106	53.76189	1014.40643	-895.94891	38.22341	949.51752	-776.53906	676.90369	1253.64917	-703.99884	481.01251	1227.66431	-676.90155	299.28928	1253.54553	-617.09631	111.07822	1241.09973	-627.56744	45.52716	1188.40271	-454.4137	104.46716	1249.67505	-905.32343	1780.91028	1106.60364	-2846.05908	1034.08813	3356.81445	NaN	NaN	NaN	NaN	NaN	NaN
3	0.02	-783.91016	1757.2146	1011.00031	-771.73724	1728.86926	1152.7428	-885.24274	1645.73633	998.26141	-884.06952	1612.08472	1139.24268	-908.87476	1518.82214	1050.11584	-969.88196	1249.34351	1045.69104	-770.48584	1450.26526	1043.58301	-725.85486	1272.92834	1043.25391	-973.63879	1347.78137	1102.02856	-819.50397	1506.49597	873.29553	-787.72168	1312.71716	781.10272	-746.70044	1174.97583	766.01166	-669.73022	1064.80652	778.86853	-569.8678	993.36169	843.82623	-598.81366	967.34406	802.94299	-546.13385	928.40814	813.42908	-839.76575	1471.7052	1238.52283	-884.86505	1281.96008	1314.67358	-877.6109	1137.39819	1339.50378	-847.2132	1021.44812	1363.23047	-793.30035	896.12354	1349.9845	-841.91412	891.8974	1378.59839	-803.06042	830.14709	1384.85779	-760.07544	977.13361	903.3493	-741.30994	970.58289	1159.84485	-961.44897	1027.69092	1000.9256	-959.32928	1027.27441	1115.46179	-864.32446	669.24365	873.79559	-924.7525	474.35373	911.76074	-1014.28522	300.01566	918.16583	-1049.60315	79.82501	962.65869	-1088.58508	54.637	1014.83124	-895.83655	38.19318	949.48615	-766.99286	675.55475	1254.76294	-693.76587	480.17374	1228.4425	-665.32166	298.61078	1253.66687	-604.2016	111.03957	1240.48364	-613.65833	45.18976	1187.5376	-441.06903	105.30266	1248.24854	-896.84003	1779.80505	1108.64502	-2845.19653	1034.10449	3360.40137	NaN	NaN	NaN	NaN	NaN	NaN
4	0.03	-775.80109	1755.98743	1013.04138	-763.20825	1727.63892	1154.78601	-876.97101	1644.56042	1000.45221	-875.64301	1610.90906	1141.35754	-900.44592	1517.50317	1052.23511	-961.28046	1248.02405	1047.87878	-762.01257	1449.21423	1045.40515	-717.2699	1271.84143	1044.95142	-964.9541	1346.25354	1103.96887	-811.3703	1505.43396	875.22174	-780.2785	1311.52625	783.00403	-739.45001	1173.51843	767.86243	-662.19104	1063.72156	780.81213	-562.07178	993.13477	846.13794	-591.06708	966.29407	805.32141	-538.44708	927.7514	815.73828	-831.22504	1470.02112	1240.5321	-876.79987	1280.38513	1316.31213	-869.80286	1135.8103	1340.89392	-839.72479	1019.75299	1364.45105	-786.17188	894.35938	1351.07837	-834.91193	890.28101	1379.89624	-796.25452	828.36969	1385.68481	-752.19073	975.56915	904.8855	-732.40405	969.43384	1161.2583	-953.078	1026.53784	1003.40082	-950.56195	1026.20337	1117.93555	-858.49921	668.49976	875.2666	-920.19208	473.95319	912.82684	-1011.56818	300.60861	919.05847	-1049.23901	80.64544	963.01013	-1088.18774	55.69381	1015.26117	-895.72638	38.1646	949.43457	-756.65143	674.42615	1256.27539	-682.91498	479.56799	1229.04773	-654.13885	297.82904	1253.70691	-593.07159	110.40265	1239.62866	-602.28674	44.7836	1186.60254	-430.13132	104.74603	1247.05591	-888.33075	1778.76563	1110.86951	-2845.25098	1034.03137	3360.31372	NaN	NaN	NaN	NaN	NaN	NaN
5	0.04	-767.14008	1754.48035	1015.38556	-754.65228	1726.41455	1156.90527	-868.67926	1643.34973	1002.6347	-867.19958	1609.77991	1143.61951	-891.59821	1516.03345	1054.32983	-952.57715	1246.64282	1050.06018	-753.49451	1447.974	1047.41895	-708.55695	1270.62756	1046.67139	-956.35669	1344.82764	1106.05017	-803.19666	1504.27148	877.30743	-772.94324	1310.24951	784.75751	-732.53827	1172.14551	769.51135	-655.52411	1062.3363	782.96252	-555.29694	991.84344	848.0451	-584.15894	965.14618	807.45166	-531.23792	926.69403	817.96014	-822.79254	1468.47217	1242.35632	-868.5589	1278.80811	1318.04993	-861.83679	1134.1554	1342.34265	-832.12091	1018.15662	1366.03784	-778.87634	892.48749	1352.25928	-827.6723	888.53589	1380.96216	-789.14606	826.33441	1386.72424	-744.02643	974.05768	906.66699	-723.28711	968.19208	1162.98584	-944.61609	1025.36462	1005.88385	-941.7851	1025.04492	1120.43726	-852.43353	667.70697	876.87292	-915.48376	473.54102	914.03119	-1008.8064	301.21884	920.12006	-1048.87183	81.59579	963.26532	-1087.77075	56.68972	1015.38373	-895.6438	38.1249	949.38965	-745.6723	673.61298	1257.99036	-671.60992	478.98859	1229.44971	-643.47308	296.97015	1253.72363	-583.72198	109.28696	1238.44177	-593.43079	43.9813	1185.1366	-420.85776	102.57915	1246.25293	-879.79944	1777.61157	1113.11804	-2845.323	1034.03052	3360.36548	NaN	NaN	NaN	NaN	NaN	NaN
